<svg width="33" height="33" viewBox="0 0 33 33" fill="none" xmlns="http://www.w3.org/2000/svg">
<path d="M13.8623 10.936C11.8274 10.936 10.1716 12.5943 10.1716 14.6316V19.9097C10.1716 21.9467 11.8284 23.6042 13.8638 23.6042H19.1371C21.1723 23.6042 22.8283 21.946 22.8283 19.9087V14.6301C22.8283 12.5933 21.1715 10.936 19.1361 10.936H13.8623ZM20.2969 12.9629C20.5764 12.9629 20.8032 13.19 20.8032 13.4697C20.8032 13.7494 20.5764 13.9764 20.2969 13.9764C20.0175 13.9764 19.7907 13.7494 19.7907 13.4697C19.7907 13.19 20.0175 12.9629 20.2969 12.9629ZM16.4999 13.9764C18.3149 13.9764 19.7907 15.4535 19.7907 17.2701C19.7907 19.0867 18.3147 20.5639 16.4999 20.5639C14.685 20.5639 13.2092 19.0865 13.2092 17.2701C13.2092 15.4538 14.685 13.9764 16.4999 13.9764ZM16.4999 14.9899C15.2416 14.9899 14.2218 16.0107 14.2218 17.2701C14.2218 18.5296 15.2416 19.5504 16.4999 19.5504C17.7583 19.5504 18.7781 18.5296 18.7781 17.2701C18.7781 16.0107 17.7583 14.9899 16.4999 14.9899Z" fill="#D23939"/>
<rect x="1.48096" y="1.49658" width="30.0606" height="30.0606" rx="3.5" stroke="#D9D9D9"/>
</svg>
