<svg width="33" height="33" viewBox="0 0 33 33" fill="none" xmlns="http://www.w3.org/2000/svg">
<path d="M24.557 11.3098C23.9634 11.5861 23.325 11.7703 22.6516 11.8573C23.3363 11.4304 23.863 10.7494 24.1102 9.9449C23.4696 10.3394 22.7599 10.6291 22.0048 10.7818C21.4018 10.1104 20.5417 9.69385 19.5889 9.69385C17.7584 9.69385 16.275 11.2388 16.275 13.1435C16.275 13.413 16.3049 13.6756 16.3615 13.9305C13.6079 13.7852 11.1656 12.4102 9.53174 10.3234C9.24467 10.8332 9.08318 11.4304 9.08318 12.0606C9.08318 13.2582 9.66694 14.3123 10.557 14.9335C10.0137 14.916 9.50233 14.7573 9.05461 14.5027C9.05461 14.5131 9.05461 14.5286 9.05461 14.5431C9.05461 16.2167 10.1972 17.6101 11.7118 17.9274C11.4349 18.007 11.1425 18.0513 10.841 18.0513C10.6269 18.0513 10.4184 18.0258 10.2165 17.9877C10.6382 19.3553 11.8617 20.355 13.3112 20.3844C12.177 21.3081 10.7488 21.8613 9.19546 21.8613C8.92705 21.8613 8.66487 21.8453 8.40552 21.8123C9.87255 22.7883 11.6151 23.3605 13.4854 23.3605C19.5801 23.3605 22.9141 18.103 22.9141 13.5422C22.9141 13.3928 22.9096 13.2439 22.9028 13.0968C23.5536 12.6144 24.1141 12.0053 24.557 11.3098Z" fill="#00B2FF"/>
<rect x="1.45117" y="1.49658" width="30.0606" height="30.0606" rx="3.5" stroke="#D9D9D9"/>
</svg>
